<svg width="54" height="60" viewBox="0 0 54 60" fill="none" xmlns="http://www.w3.org/2000/svg">
<path d="M53.0167 15H35.5645V0L53.0167 15ZM35.5645 18.75H53.0167V54.375C53.0167 57.4816 50.0866 60 46.4721 60H7.20467C3.59016 60 0.660095 57.4805 0.660095 54.375V5.625C0.660095 2.51836 3.59016 0 7.20467 0H31.2014L31.202 15C31.2014 17.0742 33.1512 18.75 35.5645 18.75ZM35.4282 34.5703L30.1107 39.1523V27.1875C30.1107 25.6348 28.645 24.375 26.8384 24.375C25.0318 24.375 23.5661 25.6406 23.5661 27.1875V39.1523L18.1259 34.5703C17.6078 34.0195 16.7761 33.75 15.9308 33.75C15.0854 33.75 14.2564 34.0195 13.617 34.5703C12.3388 35.6689 12.3388 37.4484 13.617 38.5477L24.5246 47.9227C25.8029 49.0213 27.8733 49.0213 29.1522 47.9227L40.0598 38.5477C41.338 37.449 41.338 35.6695 40.0598 34.5703C38.7816 33.4711 36.7098 33.4805 35.4282 34.5703Z" fill="white"/>
</svg>
